/* XPM */
static char * mini-raise_xpm[] = {
"16 16 2 1",
" 	c None",
".	c red",
"                ",
"       .        ",
"      ...       ",
"     .....      ",
"    .......     ",
"   .........    ",
"     .....      ",
"     .....      ",
"     ... .      ",
"     . ...      ",
"     .. ..      ",
"     . .        ",
"      . ..      ",
"     .          ",
"     . . .      ",
"                ",
};
