/* XPM */
static char * mini-skull_xpm[] = {
"16 16 4 1",
" 	c None s None",
".	c red",
"X	c #808080",
"o	c black",
"                ",
"      ....      ",
"    X......X    ",
"   X........X   ",
"   ..oo..oo..   ",
"   ..XX..XX..   ",
"   o........o   ",
"    o......o    ",
"X.   o....o   .X",
"X.    ....    .X",
" o.   o..o   .o ",
"  o... oo ...o  ",
"   ooo....ooo   ",
"    ........    ",
" ....oooooo.... ",
" oooo      oooo ",
};
