/* XPM */
static char * window_iconify_xpm[] = {
"16 16 4 1",
" 	c None",
"O	c black",
"=	c navy",
".	c white",
"                ",
"OOOOOOOOOOO     ",
"O=========O     ",
"O=========OO    ",
"O.........O     ",
"O.........O     ",
"O.........O O   ",
"O.........O     ",
"O.........O     ",
"OOOOOOOOOOO  O  ",
"  O             ",
"     O     OOOO ",
"        O  O..O ",
"           OOOO ",
"                ",
"                ",
};
