/* XPM */
static char * mini-move1_xpm[] = {
"16 16 4 1",
" 	c None",
"O	c black",
"=	c navy",
".	c white",
"                ",
"       OO       ",
"      OOOO      ",
"     OOOOOO     ",
"       OO       ",
"  O OOOOOOOO O  ",
" OO O======O OO ",
"OOOOO......OOOOO",
"OOOOO......OOOOO",
" OO O......O OO ",
"  O OOOOOOOO O  ",
"       OO       ",
"     OOOOOO     ",
"      OOOO      ",
"       OO       ",
"                ",
};
