/* XPM */
static char * window_maximize_xpm[] = {
"16 16 5 1",
" 	c None",
"+	c black",
"O	c black",
"=	c navy",
".	c white",
"                ",
"OO OO OO OO OOO ",
"OO           OO ",
"O O         O O ",
"   OOOOOOOOO    ",
"O  O=======O  O ",
"O  O.......O  O ",
"   O.......O    ",
"O  O.......O  O ",
"O  O.......O  O ",
"   OOOOOOOOO    ",
"O O         O O ",
"OO           OO ",
"OOO OO OO OO OO ",
"                ",
"                ",
};
