/* XPM */
static char * windows_xpm[] = {
"16 16 4 1",
" 	c None",
".	c #000000",
"+	c #000080",
"@	c #FFFFFF",
"                ",
"..........      ",
".++++++++.      ",
".@@@@@@@@.      ",
".@@@@@..........",
".@@@@@.++++++++.",
".@@@@@.@@@@@@@@.",
".@@..........@@.",
".@@.++++++++.@@.",
"....@@@@@@@@.@@.",
"   .@@@@@@@@.@@.",
"   .@@@@@@@@.@@.",
"   .@@@@@@@@....",
"   .@@@@@@@@.   ",
"   ..........   ",
"                "};
