/* XPM */
static char * window_xpm[] = {
"16 16 5 1",
" 	c None",
"O	c black",
"=	c navy",
"&	c gray30",
".      c white",
"                ",
"OOOOOOOOOOOOOOO ",
"O=============O ",
"O.O=======O.O.O ",
"O=============O ",
"O.............O ",
"O.............O ",
"O.............O ",
"O.............O ",
"O.............O ",
"O.............O ",
"O.............O ",
"O.............O ",
"OOOOOOOOOOOOOOO ",
"                ",
"                ",
};
